<?xml version="1.0" encoding="utf-8"?>
<!-- Generator: Adobe Illustrator 19.2.1, SVG Export Plug-In . SVG Version: 6.00 Build 0)  -->
<svg version="1.1" id="Layer_1" xmlns="http://www.w3.org/2000/svg" xmlns:xlink="http://www.w3.org/1999/xlink" x="0px" y="0px"
	 viewBox="0 0 193.1 193.1" style="enable-background:new 0 0 193.1 193.1;" xml:space="preserve">
<style type="text/css">
	.st0{fill:#3D303A;}
	.st1{fill:#FFFFFF;}
</style>
<g>
	<g>
		<path class="st0" d="M127.2,38.6h15.6c2,0,3.6-1.6,3.6-3.6V4.6c0-2-1.6-3.6-3.6-3.6h-15.6c-2,0-3.6,1.6-3.6,3.6V35
			C123.6,37,125.2,38.6,127.2,38.6z"/>
		<path class="st0" d="M50.3,38.6h15.6c2,0,3.6-1.6,3.6-3.6V4.6c0-2-1.6-3.6-3.6-3.6H50.3c-2,0-3.6,1.6-3.6,3.6V35
			C46.7,37,48.3,38.6,50.3,38.6z"/>
	</g>
	<g>
		<path class="st0" d="M188.1,13.7H5c-2,0-3.6,1.6-3.6,3.6v171.2c0,2,1.6,3.6,3.6,3.6h183.1c2,0,3.6-1.6,3.6-3.6V17.3
			C191.7,15.3,190.1,13.7,188.1,13.7z M73.9,130.7c-2,2-4.6,3-7.2,3s-5.2-1-7.2-3l-16.9-16.9c-4-3.9-4-10.3,0-14.3
			c3.9-4,10.3-4,14.3,0l9.7,9.7c0.4,0.5,0.8,1,1.2,1.4l13.2,13L73.9,130.7z"/>
		<g>
			<path class="st1" d="M100.4,133.7L100.4,133.7c-2.7,0-5.3-1.1-7.2-3l-16.9-16.9c-4-4-4-10.4,0-14.3c4-4,10.4-4,14.3,0l9.7,9.7
				l35.9-35.8c4-4,10.4-4,14.3,0s4,10.4,0,14.3l-43,43C105.6,132.6,103.1,133.7,100.4,133.7z"/>
		</g>
	</g>
</g>
</svg>
