<?xml version="1.0" encoding="utf-8"?>
<!-- Generator: Adobe Illustrator 19.2.1, SVG Export Plug-In . SVG Version: 6.00 Build 0)  -->
<svg version="1.1" id="Layer_1" xmlns="http://www.w3.org/2000/svg" xmlns:xlink="http://www.w3.org/1999/xlink" x="0px" y="0px"
	 viewBox="0 0 135.9 136.4" style="enable-background:new 0 0 135.9 136.4;" xml:space="preserve">
<style type="text/css">
	.st0{fill:#F4F4F4;}
	.st1{fill:#312D30;}
	.st2{fill:#FFFFFF;}
</style>
<rect x="16.1" y="55.2" class="st0" width="68.1" height="58.1"/>
<g>
	<g>
		<path class="st1" d="M89.8,26.8H101c1.4,0,2.6-1.2,2.6-2.6V2.6c0-1.4-1.2-2.6-2.6-2.6H89.8c-1.4,0-2.6,1.2-2.6,2.6v21.7
			C87.2,25.7,88.4,26.8,89.8,26.8z"/>
		<path class="st1" d="M34.9,26.8h11.2c1.4,0,2.6-1.2,2.6-2.6V2.6c0-1.4-1.2-2.6-2.6-2.6H34.9c-1.4,0-2.5,1.2-2.5,2.6v21.7
			C32.4,25.7,33.5,26.8,34.9,26.8z"/>
	</g>
	<g>
		<path class="st1" d="M133.3,9H2.6C1.2,9,0,10.2,0,11.6v122.2c0,1.5,1.2,2.6,2.6,2.6h130.7c1.4,0,2.6-1.2,2.6-2.6V11.6
			C135.9,10.2,134.7,9,133.3,9z M51.8,92.6c-1.4,1.4-3.2,2.1-5.1,2.1c-1.8,0-3.7-0.7-5.1-2.1L29.5,80.5c-2.8-2.8-2.8-7.4,0-10.2
			c2.8-2.8,7.4-2.8,10.2,0l6.9,6.9c0.2,0.3,0.5,0.7,0.8,1l9.4,9.4L51.8,92.6z"/>
		<g>
			<path class="st2" d="M70.7,94.7L70.7,94.7c-1.9,0-3.8-0.8-5.1-2.1L53.5,80.5c-2.8-2.8-2.8-7.4,0-10.2c2.8-2.8,7.4-2.8,10.2,0
				l6.9,6.9l25.6-25.6c2.8-2.8,7.4-2.8,10.2,0s2.8,7.4,0,10.2L75.7,92.5C74.4,93.9,72.6,94.7,70.7,94.7z"/>
		</g>
	</g>
</g>
</svg>
