<?xml version="1.0" encoding="utf-8"?>
<!-- Generator: Adobe Illustrator 19.2.1, SVG Export Plug-In . SVG Version: 6.00 Build 0)  -->
<svg version="1.1" id="Layer_1" xmlns="http://www.w3.org/2000/svg" xmlns:xlink="http://www.w3.org/1999/xlink" x="0px" y="0px"
	 viewBox="0 0 193.1 193.1" style="enable-background:new 0 0 193.1 193.1;" xml:space="preserve">
<style type="text/css">
	.st0{fill:#3D303A;}
	.st1{fill:#FFFFFF;}
	.st2{font-family:'Kanit-Medium';}
	.st3{font-size:34.7403px;}
</style>
<g>
	<g>
		<path class="st0" d="M118.4,26.8h11.2c1.4,0,2.6-1.2,2.6-2.6V2.6c0-1.4-1.2-2.6-2.6-2.6h-11.2c-1.4,0-2.6,1.2-2.6,2.6v21.7
			C115.8,25.7,117,26.8,118.4,26.8z"/>
		<path class="st0" d="M63.5,26.8h11.2c1.4,0,2.6-1.2,2.6-2.6V2.6c0-1.4-1.2-2.6-2.6-2.6H63.5C62.1,0,61,1.2,61,2.6v21.7
			C61,25.7,62.1,26.8,63.5,26.8z"/>
	</g>
	<g>
		<path class="st0" d="M161.9,9H31.2c-1.4,0-2.6,1.2-2.6,2.6v122.2c0,1.5,1.2,2.6,2.6,2.6h130.7c1.4,0,2.6-1.2,2.6-2.6V11.6
			C164.5,10.2,163.3,9,161.9,9z M80.4,92.6c-1.4,1.4-3.2,2.1-5.1,2.1c-1.8,0-3.7-0.7-5.1-2.1L58.1,80.5c-2.8-2.8-2.8-7.4,0-10.2
			c2.8-2.8,7.4-2.8,10.2,0l6.9,6.9c0.2,0.3,0.5,0.7,0.8,1l9.4,9.4L80.4,92.6z"/>
		<g>
			<path class="st1" d="M99.3,94.7L99.3,94.7c-1.9,0-3.8-0.8-5.1-2.1L82.1,80.5c-2.8-2.8-2.8-7.4,0-10.2c2.8-2.8,7.4-2.8,10.2,0
				l6.9,6.9l25.6-25.6c2.8-2.8,7.4-2.8,10.2,0s2.8,7.4,0,10.2l-30.7,30.7C103,93.9,101.2,94.7,99.3,94.7z"/>
		</g>
	</g>
</g>
<text transform="matrix(1 0 0 1 26.9534 178.8049)" class="st1 st2 st3">weekli.js</text>
</svg>
