<?xml version="1.0" standalone="no"?>
<!DOCTYPE svg PUBLIC "-//W3C//DTD SVG 20010904//EN"
 "http://www.w3.org/TR/2001/REC-SVG-20010904/DTD/svg10.dtd">
<svg version="1.0" xmlns="http://www.w3.org/2000/svg"
 width="700.000000pt" height="700.000000pt" viewBox="0 0 700.000000 700.000000"
 preserveAspectRatio="xMidYMid meet">
<metadata>
Created by potrace 1.11, written by Peter Selinger 2001-2013
</metadata>
<g transform="translate(0.000000,700.000000) scale(0.100000,-0.100000)"
fill="#000000" stroke="none">
<path d="M1741 6982 c-63 -34 -71 -64 -71 -264 l0 -178 -787 -2 -788 -3 -31
-22 c-17 -13 -39 -38 -48 -57 -15 -31 -16 -293 -14 -3204 l3 -3170 25 -27 c14
-15 37 -33 52 -41 23 -12 525 -14 3420 -14 3368 0 3393 0 3426 20 18 11 41 34
52 52 20 33 20 57 20 3191 0 2894 -1 3162 -16 3193 -9 19 -31 44 -48 57 l-31
22 -782 3 -781 2 -4 183 c-3 169 -5 184 -25 213 -44 62 -58 64 -397 64 -340 0
-355 -2 -397 -61 -23 -32 -24 -42 -27 -216 l-3 -183 -989 0 -989 0 -3 183 c-3
174 -4 184 -27 216 -42 59 -57 61 -398 61 -280 0 -311 -2 -342 -18z m3632
-2559 c83 -39 141 -97 180 -181 28 -59 32 -77 32 -152 0 -75 -4 -93 -33 -155
-31 -67 -65 -103 -864 -898 -748 -744 -839 -832 -896 -859 -117 -56 -246 -47
-357 27 -27 19 -202 186 -387 372 -395 396 -393 394 -393 553 0 82 4 103 26
151 80 169 258 252 438 204 81 -21 137 -66 335 -264 l179 -180 679 672 c374
370 697 683 719 696 100 59 232 65 342 14z m-3498 -937 c28 -7 66 -21 85 -31
35 -18 960 -935 960 -953 0 -5 -65 -73 -145 -151 -183 -179 -231 -206 -370
-206 -81 0 -97 4 -160 33 -64 30 -98 61 -417 380 -319 320 -350 353 -380 417
-29 62 -33 80 -33 155 0 71 5 94 27 142 37 80 71 121 132 162 93 62 198 80
301 52z"/>
</g>
</svg>
